<svg width="285" height="23" viewBox="0 0 285 23" fill="none" xmlns="http://www.w3.org/2000/svg">
<g filter="url(#filter0_d)">
<path d="M2.5 1.03526C9.75146 8.31715 25.0427 8.8235 34.5 5.62351C38.7852 4.17357 43.6101 1.25699 48.2298 1.74723C53.4987 2.30636 57.8804 5.18254 63.3025 5.62351C73.3742 6.44264 84.5822 5.07869 94.7346 4.75332C98.7332 4.62517 98.5635 4.36075 102.547 3.64581C110.491 2.21982 118.185 1.945 126.305 1.945C141.335 1.945 156.234 1.30787 171.247 1.03526C183.388 0.814788 206.152 1.2412 210.721 14.088C213.227 21.1357 198.524 20.2642 212.789 13.6134C234.229 3.61721 258.936 3.16314 282.5 1.11436" stroke="#F5F5F5" stroke-width="2" stroke-linecap="round" stroke-linejoin="round"/>
</g>
<defs>
<filter id="filter0_d" x="0.5" y="-7.62939e-05" width="284" height="23.0001" filterUnits="userSpaceOnUse" color-interpolation-filters="sRGB">
<feFlood flood-opacity="0" result="BackgroundImageFix"/>
<feColorMatrix in="SourceAlpha" type="matrix" values="0 0 0 0 0 0 0 0 0 0 0 0 0 0 0 0 0 0 127 0"/>
<feOffset dy="2"/>
<feGaussianBlur stdDeviation="0.5"/>
<feColorMatrix type="matrix" values="0 0 0 0 0 0 0 0 0 0 0 0 0 0 0 0 0 0 0.05 0"/>
<feBlend mode="normal" in2="BackgroundImageFix" result="effect1_dropShadow"/>
<feBlend mode="normal" in="SourceGraphic" in2="effect1_dropShadow" result="shape"/>
</filter>
</defs>
</svg>
