<svg width="318" height="141" viewBox="0 0 318 141" fill="none" xmlns="http://www.w3.org/2000/svg">
<g filter="url(#filter0_d)">
<path d="M55 12C48.3369 -3.65829 15.0313 2.4169 6.33333 12.7778C-7.1662 28.8581 17.4675 40.1581 28.3333 43.1667C43.2418 47.2946 56.4328 46.9806 71.5556 46C76.416 45.6848 87.1946 41.4057 86.1667 46.1667C85.5213 49.1556 83.1992 51.5148 81.7778 54.2222C72.6324 71.6419 72.027 72.3578 64.5556 92.2222C56.2031 114.429 58.6548 110.333 51.6667 130.333C50.8829 132.577 50.4965 135.099 49 136.944C48.4568 137.614 48.2568 135.303 48.3333 134.444C49.7011 119.088 55.1632 103.451 62 89.7778C67.9621 77.8535 79.7829 55.8702 94.1667 51.4444C98.0112 50.2615 101.321 54.0827 104.889 54.7778C109.379 55.6524 113.596 54.3018 117.833 53.0555C125.067 50.928 132.126 48.3616 139.667 47.7778C149.807 46.9927 160.189 46.332 170.278 45.2222C174.26 44.7841 182.252 41.9329 185.889 45.2222C194.682 53.175 192.787 74.646 193.556 85.1111C194.093 92.4284 193.805 95.226 196.111 87C199.426 75.1731 203.159 63.4401 208.222 52.2222C208.792 50.9599 215.411 32.838 221.167 36.1111C224.813 38.1845 225.173 46.4792 230.722 45.5C237.996 44.2163 237.713 34.0932 235.333 29.3333C234.868 28.4027 229.712 22.3826 233.944 28.6111C240.442 38.1736 249.045 46.3258 255.111 56.1667C258.214 61.1995 254.425 58.6412 254.111 56.8889C252.654 48.7548 257.033 39.4726 259.889 32.2778C262.6 25.4477 270.541 13.2716 269 5.22221C268.593 3.09553 263.93 4.90795 262.667 6.66666C259.627 10.8991 258.016 17.3007 259.111 22.4444C260.981 31.231 268.739 36.5129 277.222 37.2778C280.364 37.5611 283.943 37.1974 286.167 34.6667C286.544 34.237 285.622 32.6726 285.333 33.1667C282.907 37.3267 289.455 44.8899 291.444 47.2222C298.577 55.584 307.005 60.2535 316 66" stroke="#F5F5F5" stroke-width="3" stroke-linecap="round" stroke-linejoin="round"/>
</g>
<defs>
<filter id="filter0_d" x="0.891129" y="0.967178" width="316.609" height="139.597" filterUnits="userSpaceOnUse" color-interpolation-filters="sRGB">
<feFlood flood-opacity="0" result="BackgroundImageFix"/>
<feColorMatrix in="SourceAlpha" type="matrix" values="0 0 0 0 0 0 0 0 0 0 0 0 0 0 0 0 0 0 127 0"/>
<feOffset dy="2"/>
<feColorMatrix type="matrix" values="0 0 0 0 0 0 0 0 0 0 0 0 0 0 0 0 0 0 0.05 0"/>
<feBlend mode="normal" in2="BackgroundImageFix" result="effect1_dropShadow"/>
<feBlend mode="normal" in="SourceGraphic" in2="effect1_dropShadow" result="shape"/>
</filter>
</defs>
</svg>
